<svg xmlns="http://www.w3.org/2000/svg" viewBox="88.5051904296875 120.96762084960938 397.9896240234375 333.0647557534004"> <svg xmlns="http://www.w3.org/2000/svg" xmlns:xlink="http://www.w3.org/1999/xlink" viewBox="7 12.19000244140625 270.46417236328125 202.39999389648438" height="193.06475575340036" width="257.9896240234375" y="190.96762084960938" x="158.5051904296875" preserveAspectRatio="xMinYMin" style="overflow: visible;"><radialGradient id="radial-gradient" cx="165.4" cy="110.32" fx="155.17464617015602" fy="96.31231202168753" r="101.2" gradientUnits="userSpaceOnUse" style=""><stop offset="0" stop-color="#3ec1cd"></stop><stop offset="0.14" stop-color="#37b6c8"></stop><stop offset="0.39" stop-color="#2398bc"></stop><stop offset="0.72" stop-color="#0368a9"></stop><stop offset="0.75" stop-color="#0063a7"></stop><stop offset="1" stop-color="#004987"></stop></radialGradient><linearGradient id="linear-gradient" x1="52.4" y1="132.73" x2="263.07" y2="76.73" gradientTransform="translate(1.12 -2.98) rotate(0.72)" gradientUnits="userSpaceOnUse" style=""><stop offset="0" stop-color="#0093e3"></stop><stop offset="0.54" stop-color="#d4edfa"></stop><stop offset="1" stop-color="#0093e3"></stop></linearGradient><linearGradient id="linear-gradient-2" x1="64.78" y1="96.3" x2="254.07" y2="45.99" gradientTransform="translate(9.15 -15.52) rotate(6.48)" xlink:href="#linear-gradient" style=""></linearGradient><linearGradient id="linear-gradient-3" x1="17.81" y1="176.91" x2="301.15" y2="92.91" gradientTransform="matrix(1, 0, 0, 1, 0, 0)" xlink:href="#linear-gradient" style=""></linearGradient><circle id="art" class="cls-2" cx="164.48" cy="113.39" r="101.2" style="fill: url(#radial-gradient);"></circle><path id="art" class="cls-3" d="M73.35,109.63l-8.78,9.22L83.1,131.72S205.3,76.33,264.25,96.34q-.83-4.83-2.09-9.49C210.75,58.94,73.35,109.63,73.35,109.63Z" style="fill: #0046be; opacity: 0.3; mix-blend-mode: multiply; fill-opacity: 1;"></path><path id="art" class="cls-3" d="M172.25,133.29a245.19,245.19,0,0,1,33.49-9.55c22.67-5,46.65-7.4,59.72-3.66.14-2.21.22-4.44.22-6.69q0-5.15-.5-10.16c-16.57-5.77-46.25-5.71-89.62,5.5-41.73,10.78-78.3,27.06-105.41,41.35a100.91,100.91,0,0,0,14.24,25.16C148.16,139.65,172.25,133.29,172.25,133.29Z" style="fill: #0046be; opacity: 0.3; mix-blend-mode: multiply; fill-opacity: 1;"></path><path id="art" class="cls-4" d="M62.54,111.47S247.85,38.85,274.43,98.19C223.76,61.27,79.57,126.63,79.57,126.63L68.39,124Z" style="fill: #0ddae8; fill-opacity: 1;"></path><path id="art" class="cls-5" d="M47.21,115.35S250.54,30.1,274.43,98.19C225.4,53.18,68.48,124,68.48,124Z" style="fill: url(#linear-gradient);"></path><path id="art" class="cls-3" d="M82.47,72.42l-8.63,8.35L89,95.33S210.87,48.39,259.31,78a100.74,100.74,0,0,0-5.55-12.29C209.51,34.45,82.47,72.42,82.47,72.42Z" style="fill: #0046be; opacity: 0.3; mix-blend-mode: multiply; fill-opacity: 1;"></path><path id="art" class="cls-4" d="M72.74,73.23s173.92-56.07,191.81,5.51C223.27,37.18,86.36,89.94,86.36,89.94l-9.63-3.73Z" style="fill: #0ddae8; fill-opacity: 1;"></path><path id="art" class="cls-6" d="M60.28,76.35S248.33,12,264.55,78.74C225.48,29.28,76.81,86.27,76.81,86.27Z" style="fill: url(#linear-gradient-2);"></path><path id="art" class="cls-4" d="M17,175s65.66-48.24,155-71.31,120.56,1.1,98.81,26.06c7.93-20.5-32-19-68.63-11a245.19,245.19,0,0,0-33.49,9.55s-31.88,8.4-119.42,60.09c-11.26-3.1-11.64-3.08-11.64-3.08Z" style="fill: #0ddae8; fill-opacity: 1;"></path><path id="art" class="cls-7" d="M7,175.12S82.67,126.76,172,103.69s120.56,1.1,98.81,26.06c12-26.18-41.57-22.94-78.16-14.94a245.19,245.19,0,0,0-33.49,9.55s-33.34,8-121.51,61C8,174.93,7,175.12,7,175.12Z" style="fill: url(#linear-gradient-3);"></path></svg></svg>